# xmcd
#
# Track frame offsets:
#	150
#	10096
#	30209
#	42442
#	57769
#	73479
#	91369
#	101979
#	114159
#	130814
#	145976
#	157925
#	170271
#
# Disc length: 2378 seconds
#
# Revision: 1
# Processed by: cddbd v1.5.2PL0 Copyright (c) Steve Scherf et al.
# Submitted via: audiograbber 1.83.01
#
DISCID=a609480d
DTITLE=Leeann Atherton - Heart Travelled Road
DYEAR=2009
DGENRE=
TTITLE0=Daily Blues
TTITLE1=Change of Heart
TTITLE2=Ride Out the Blues
TTITLE3=Looking for a Rainbow
TTITLE4=Bougainvillea Sunset
TTITLE5=Ode to Nowhere
TTITLE6=Remember Me
TTITLE7=Kiss
TTITLE8=I Believe
TTITLE9=Soul Song
TTITLE10=Way of the Heart
TTITLE11=Lucy
TTITLE12=Dream Again
EXTD=
EXTT0=
EXTT1=
EXTT2=
EXTT3=
EXTT4=
EXTT5=
EXTT6=
EXTT7=
EXTT8=
EXTT9=
EXTT10=
EXTT11=
EXTT12=
PLAYORDER=
